<svg xmlns="http://www.w3.org/2000/svg" xmlns:xlink="http://www.w3.org/1999/xlink" xmlns:sketch="http://www.bohemiancoding.com/sketch/ns" viewBox="0 0 150 150" version="1.1">
    <!-- Generator: Sketch 3.3 (11970) - http://www.bohemiancoding.com/sketch -->
    <title>logo</title>
    <desc>Created with Sketch.</desc>
    <defs/>
    <g id="Page-1" stroke="none" stroke-width="1" fill="none" fill-rule="evenodd" sketch:type="MSPage">
        <g id="logo" sketch:type="MSArtboardGroup" fill="#1A1918">
            <g id="Imported-Layers" sketch:type="MSLayerGroup">
                <path d="M0.4 114.2 L1.2 114.2 C1.6 116.3 2.7 117.6 4.9 117.6 C6.5 117.6 7.9 116.6 7.9 115.4 C7.9 115.1 7.7 114.6 7.2 114 C5.9 112.7 3.2 111.8 1.6 110.1 C1 109.6 0.7 108.9 0.7 108.1 C0.7 106 2.5 104.7 5.3 104.7 C6.6 104.7 8.1 105.1 9.4 105.8 L9.4 108.7 L8.5 108.7 C8.4 106.7 7 105.5 5.1 105.5 C3.8 105.5 2.7 106.3 2.7 107.4 C2.7 107.9 2.9 108.3 3.3 108.7 C4.4 109.8 7.3 110.9 8.8 112.4 C9.5 113.1 9.9 113.9 9.9 114.9 C9.9 117 7.8 118.6 5 118.6 C3.5 118.6 1.4 118.2 0.4 117.6 L0.4 114.2 " id="Fill-1" sketch:type="MSShapeGroup"/>
                <path d="M30.9 105.7 L28.8 105.7 C27 105.7 26.5 106.1 25.4 108.1 L24.7 108.1 L24.9 104.9 L39 104.9 L39.2 108.1 L38.5 108.1 C37.4 106.1 36.9 105.7 35.1 105.7 L33 105.7 L33 115.7 C33 116.9 33.5 117.6 35.1 117.6 L35.1 118.3 L28.8 118.3 L28.8 117.6 C30.4 117.6 30.9 117 30.9 115.6 L30.9 105.7 " id="Fill-2" sketch:type="MSShapeGroup"/>
                <path d="M59.6 111.2 C61.8 111.2 62.8 110.2 62.8 108.6 C62.8 107.1 61.7 105.7 59.3 105.7 L57.7 105.7 L57.7 111.2 L59.6 111.2 L59.6 111.2 ZM57.7 115.7 C57.7 117 58.3 117.6 59.8 117.6 L59.8 118.3 L53.6 118.3 L53.6 117.6 C55.4 117.6 55.6 116.7 55.6 115.3 L55.6 107.6 C55.6 106.3 55 105.6 53.6 105.6 L53.6 104.9 L60.1 104.9 C63.8 104.9 65.1 106.5 65.1 108.4 C65.1 109.8 64.1 111.3 61.5 111.7 L64.3 115 C65.8 116.7 66.8 117.6 67.6 117.6 L67.6 118.3 L66 118.3 C64.6 118.3 64 117.9 62.5 116.1 L59.9 112.8 C59.4 112.2 59.2 112 58.3 112 L57.7 112 L57.7 115.7 L57.7 115.7 Z" id="Fill-3" sketch:type="MSShapeGroup"/>
                <path d="M92.7 118.3 L81.1 118.3 L81.1 117.6 C82.6 117.6 83.2 117 83.2 115.6 L83.2 107.7 C83.2 106.4 82.7 105.7 81.1 105.7 L81.1 104.9 L92.5 104.9 L92.5 107.9 L91.8 107.9 C91.1 106.1 90.1 105.7 88.4 105.7 L85.3 105.7 L85.3 110.9 L87.9 110.9 C89.8 110.9 90.5 110.4 90.6 109 L91.4 109 L91.4 113.8 L90.6 113.8 C90.3 112.3 89.7 111.8 88 111.8 L85.3 111.8 L85.3 115 C85.3 116.9 85.8 117.5 87.6 117.5 L88.6 117.5 C90.8 117.5 91.8 116.9 92.7 115.1 L93.6 115.1 L92.7 118.3 " id="Fill-4" sketch:type="MSShapeGroup"/>
                <path d="M119.5 118.3 L107.9 118.3 L107.9 117.6 C109.4 117.6 110.1 117 110.1 115.6 L110.1 107.7 C110.1 106.4 109.5 105.7 107.9 105.7 L107.9 104.9 L119.4 104.9 L119.4 107.9 L118.6 107.9 C117.9 106.1 116.9 105.7 115.3 105.7 L112.1 105.7 L112.1 110.9 L114.8 110.9 C116.6 110.9 117.3 110.4 117.4 109 L118.2 109 L118.2 113.8 L117.4 113.8 C117.2 112.3 116.5 111.8 114.8 111.8 L112.1 111.8 L112.1 115 C112.1 116.9 112.7 117.5 114.4 117.5 L115.4 117.5 C117.6 117.5 118.6 116.9 119.5 115.1 L120.4 115.1 L119.5 118.3 " id="Fill-5" sketch:type="MSShapeGroup"/>
                <path d="M140.8 105.7 L138.6 105.7 C136.9 105.7 136.3 106.1 135.2 108.1 L134.6 108.1 L134.8 104.9 L148.8 104.9 L149 108.1 L148.4 108.1 C147.2 106.1 146.7 105.7 145 105.7 L142.8 105.7 L142.8 115.7 C142.8 116.9 143.3 117.6 145 117.6 L145 118.3 L138.6 118.3 L138.6 117.6 C140.2 117.6 140.8 117 140.8 115.6 L140.8 105.7 " id="Fill-6" sketch:type="MSShapeGroup"/>
                <path d="M6.6 136 L4.5 136 C2.7 136 2.2 136.4 1.1 138.3 L0.4 138.3 L0.6 135.1 L14.7 135.1 L14.9 138.3 L14.2 138.3 C13.1 136.3 12.5 136 10.8 136 L8.7 136 L8.7 145.9 C8.7 147.2 9.1 147.8 10.8 147.8 L10.8 148.6 L4.5 148.6 L4.5 147.8 C6.1 147.8 6.6 147.2 6.6 145.8 L6.6 136 " id="Fill-7" sketch:type="MSShapeGroup"/>
                <path d="M33.2 136.9 L31.1 142.3 L35.4 142.3 L33.2 136.9 L33.2 136.9 ZM35.9 143.3 L30.6 143.3 L29.9 145.2 C29.4 146.6 29.9 147.8 31.4 147.8 L31.4 148.6 L26.8 148.6 L26.8 147.8 C27.9 147.6 28.2 147.1 28.8 145.6 L32.7 135.8 L32.4 135.1 L34.5 135.1 L39.4 146.5 C39.8 147.4 40.2 147.8 40.9 147.8 L40.9 148.6 L35.4 148.6 L35.4 147.8 C37 147.7 37.4 146.9 36.9 145.8 L35.9 143.3 L35.9 143.3 Z" id="Fill-8" sketch:type="MSShapeGroup"/>
                <path d="M59.2 143.7 C59.5 144.4 59.8 145.1 60 145.9 C60.3 145 60.6 144.4 61 143.6 L62.6 139.7 C63.5 137.6 63.8 136.1 61.6 135.9 L61.6 135.1 L66.2 135.1 L66.2 135.9 C65.6 136.1 65.2 136.3 64.9 136.6 C64.5 137.1 64 138.9 63.3 140.4 L60.9 146 C60.6 146.8 60.3 147.8 60 148.8 L59 148.8 C58.8 148.1 58.6 147.4 58.2 146.5 L54 137.6 C53.3 136.1 53.1 135.9 52.3 135.9 L52.3 135.1 L57.7 135.1 L57.7 135.9 C55.9 136 55.7 136.6 56.6 138.4 L59.2 143.7 " id="Fill-9" sketch:type="MSShapeGroup"/>
                <path d="M91.6 148.6 L80 148.6 L80 147.8 C81.5 147.8 82.1 147.3 82.1 145.8 L82.1 137.9 C82.1 136.6 81.6 135.9 80 135.9 L80 135.1 L91.4 135.1 L91.4 138.1 L90.7 138.1 C90 136.4 89 136 87.3 136 L84.2 136 L84.2 141.2 L86.8 141.2 C88.7 141.2 89.4 140.7 89.5 139.3 L90.3 139.3 L90.3 144 L89.5 144 C89.2 142.5 88.5 142 86.9 142 L84.2 142 L84.2 145.3 C84.2 147.2 84.7 147.7 86.5 147.7 L87.5 147.7 C89.7 147.7 90.6 147.2 91.6 145.3 L92.5 145.3 L91.6 148.6 " id="Fill-10" sketch:type="MSShapeGroup"/>
                <path d="M112.7 141.4 C114.9 141.4 115.9 140.4 115.9 138.9 C115.9 137.4 114.8 136 112.4 136 L110.9 136 L110.9 141.4 L112.7 141.4 L112.7 141.4 ZM110.9 146 C110.9 147.2 111.5 147.8 112.9 147.8 L112.9 148.6 L106.8 148.6 L106.8 147.8 C108.5 147.8 108.8 146.9 108.8 145.6 L108.8 137.8 C108.8 136.5 108.2 135.9 106.8 135.9 L106.8 135.1 L113.3 135.1 C117 135.1 118.3 136.7 118.3 138.6 C118.3 140.1 117.3 141.6 114.6 142 L117.4 145.2 C118.9 146.9 120 147.8 120.7 147.8 L120.7 148.6 L119.1 148.6 C117.7 148.6 117.1 148.2 115.6 146.3 L113 143.1 C112.5 142.5 112.3 142.2 111.4 142.2 L110.9 142.2 L110.9 146 L110.9 146 Z" id="Fill-11" sketch:type="MSShapeGroup"/>
                <path d="M136.3 137.6 L135.5 136.7 C134.8 136.1 134.4 136 133.6 135.9 L133.6 135.1 L136.8 135.1 L146.9 145.4 L146.9 138.9 C146.9 137.4 146.6 135.9 144.6 135.9 L144.6 135.1 L149.9 135.1 L149.9 135.9 C148.4 135.9 147.8 137.1 147.8 138.9 L147.8 145.1 C147.8 147.1 148.2 147.5 148.2 148.8 L146.9 148.8 C146.3 147.9 145.8 147.3 145.4 146.8 L137.2 138.5 L137.2 145.3 C137.2 147.1 138 147.8 139.6 147.8 L139.6 148.6 L133.9 148.6 L133.9 147.8 C135.7 147.8 136.3 147.3 136.3 145.7 L136.3 137.6 " id="Fill-12" sketch:type="MSShapeGroup"/>
                <path d="M2.7 77.5 L1.9 76.6 C1.2 76 0.8 75.9 0.1 75.8 L0.1 75.1 L3.3 75.1 L13.3 85.3 L13.3 78.8 C13.3 77.3 13 75.8 11 75.8 L11 75.1 L16.3 75.1 L16.3 75.8 C14.8 75.8 14.2 77 14.2 78.8 L14.2 85 C14.2 87 14.6 87.4 14.6 88.7 L13.3 88.7 C12.7 87.8 12.2 87.2 11.8 86.8 L3.6 78.4 L3.6 85.2 C3.6 87 4.4 87.8 6 87.8 L6 88.5 L0.4 88.5 L0.4 87.8 C2.1 87.8 2.8 87.2 2.7 85.6 L2.7 77.5 " id="Fill-13" sketch:type="MSShapeGroup"/>
                <path d="M38.6 88.5 L27 88.5 L27 87.8 C28.5 87.8 29.1 87.2 29.1 85.8 L29.1 77.8 C29.1 76.5 28.6 75.8 27 75.8 L27 75.1 L38.4 75.1 L38.4 78.1 L37.7 78.1 C37 76.3 36 75.9 34.3 75.9 L31.2 75.9 L31.2 81.1 L33.8 81.1 C35.7 81.1 36.4 80.6 36.5 79.2 L37.3 79.2 L37.3 83.9 L36.5 83.9 C36.2 82.4 35.6 81.9 33.9 81.9 L31.2 81.9 L31.2 85.2 C31.2 87.1 31.7 87.7 33.5 87.7 L34.5 87.7 C36.7 87.7 37.6 87.1 38.6 85.2 L39.5 85.2 L38.6 88.5 " id="Fill-14" sketch:type="MSShapeGroup"/>
                <path d="M57.1 77.8 C56.4 76.1 55.9 75.8 55.4 75.8 L55.4 75.1 L59.9 75.1 L59.9 75.8 C59 76.1 58.8 76.8 59.2 77.6 L60.5 80.1 L61.6 77.9 C62 77.2 62 76.1 60.9 75.8 L60.9 75.1 L64.5 75.1 L64.5 75.8 C63.7 76 63.4 76.5 62.7 77.8 L60.9 81.1 L62.6 84.6 C62.9 85.1 63 85.4 63.2 86 L66.3 79 C67 77.3 66.9 76 65.5 75.8 L65.5 75.1 L69.5 75.1 L69.5 75.8 C68.7 75.9 68.3 76.5 67.7 77.7 L63.7 86.9 C63.5 87.4 63.2 88.2 63.1 88.8 L62.2 88.8 C62.1 88.3 61.9 87.9 61.8 87.6 L59.7 83.4 L58.2 86.3 C58 86.8 57.3 88.2 57.2 88.8 L56.2 88.8 C56.1 88.2 55.7 87.2 55.4 86.6 L51.5 77.9 C50.8 76.3 50.6 76 49.8 75.8 L49.8 75.1 L54.4 75.1 L54.4 75.8 C53.1 76.1 53.3 77.1 53.8 78.2 L55.3 81.5 C55.7 82.4 56.8 84.8 57.4 86.3 L59.3 82.5 L57.1 77.8 " id="Fill-15" sketch:type="MSShapeGroup"/>
                <path d="M97 85.8 C97.2 86.9 97.6 87.6 99.1 87.8 L99.1 88.5 L93.1 88.5 L93.1 87.8 C94.5 87.8 95 87 94.8 85.7 L93.9 78.1 L93.9 78.1 C92.5 82.2 89.9 85.9 89.3 88.5 L88.4 88.5 C88 86 84.9 81.4 83.7 77.8 L83.7 77.8 L82.7 84.9 C82.4 86.9 82.9 87.7 84.4 87.8 L84.4 88.5 L79.8 88.5 L79.8 87.8 C81 87.8 81.4 87.2 81.7 85.8 L82.8 78.4 C83 76.7 82.8 75.9 81.3 75.8 L81.3 75.1 L85.3 75.1 C85.5 78.5 88.4 82.5 89.4 85.7 C91.2 82.3 92.3 80 92.9 78.4 C93.5 77 93.7 76 93.5 75.1 L97.5 75.1 L97.5 75.8 C96 76 95.8 76.7 96 78.1 L97 85.8 " id="Fill-16" sketch:type="MSShapeGroup"/>
                <path d="M115.6 76.9 L113.5 82.2 L117.8 82.2 L115.6 76.9 L115.6 76.9 ZM118.3 83.3 L113.1 83.3 L112.4 85.1 C111.8 86.5 112.3 87.7 113.8 87.8 L113.8 88.5 L109.3 88.5 L109.3 87.8 C110.3 87.5 110.6 87 111.2 85.6 L115.2 75.7 L114.8 75.1 L116.9 75.1 L121.8 86.4 C122.2 87.4 122.6 87.8 123.3 87.8 L123.3 88.5 L117.8 88.5 L117.8 87.8 C119.4 87.6 119.8 86.9 119.3 85.7 L118.3 83.3 L118.3 83.3 Z" id="Fill-17" sketch:type="MSShapeGroup"/>
                <path d="M136.1 77.5 L135.3 76.6 C134.6 76 134.2 75.9 133.4 75.8 L133.4 75.1 L136.6 75.1 L146.7 85.3 L146.7 78.8 C146.7 77.3 146.4 75.8 144.4 75.8 L144.4 75.1 L149.7 75.1 L149.7 75.8 C148.2 75.8 147.6 77 147.6 78.8 L147.6 85 C147.6 87 147.9 87.4 148 88.7 L146.7 88.7 C146.1 87.8 145.6 87.2 145.1 86.8 L137 78.4 L137 85.2 C137 87 137.8 87.8 139.4 87.8 L139.4 88.5 L133.7 88.5 L133.7 87.8 C135.5 87.8 136.1 87.2 136.1 85.6 L136.1 77.5 " id="Fill-18" sketch:type="MSShapeGroup"/>
                <path d="M74.3 1.2 L75.8 1.2 C80.2 1.3 84.6 2.4 88.5 4.5 C93.3 7 97.4 11 100.1 15.8 C101.9 18.8 103 22.2 103.6 25.7 C103.8 27.2 104.4 28.6 105.2 29.8 C105.9 30.9 106.8 31.8 107.7 32.7 C108.4 33.4 109.5 33.8 110.5 33.7 C111.5 33.7 112.4 33.2 113.1 32.5 C113.8 31.7 114.1 30.5 114 29.4 C113.8 28.4 113.3 27.5 112.4 26.9 C111 25.9 108.9 26 107.6 27.3 C106.9 28 106.3 28.8 105.7 29.6 C105.4 29.3 105.2 28.9 104.9 28.5 C105.5 27.7 106.1 27 106.8 26.3 C107.7 25.5 108.9 25 110.1 25 C111.4 24.9 112.7 25.4 113.6 26.3 C114.5 27.1 115.1 28.2 115.2 29.5 C115.4 30.8 115 32.1 114.2 33.1 C113.3 34.3 111.8 35 110.3 35 C108.9 35 107.5 34.4 106.6 33.4 C104.5 31.4 102.8 28.8 102.3 25.9 C101.4 19.9 98.4 14.2 93.9 10 C91.5 7.7 88.8 5.9 85.8 4.6 C80.8 2.5 75.2 1.9 69.9 2.9 C64.1 4 58.7 7.1 54.7 11.5 C51 15.5 48.5 20.6 47.8 26 C47.3 28.6 45.9 30.9 44.1 32.8 C43.6 33.3 43.1 33.9 42.5 34.3 C41.3 35 39.8 35.2 38.4 34.8 C36.5 34.2 35 32.4 34.8 30.4 L34.8 29.6 C34.9 28.3 35.5 27.1 36.5 26.2 C37.5 25.3 38.9 24.9 40.2 25 C41.4 25.1 42.5 25.6 43.4 26.4 C44.1 27.1 44.7 27.8 45.3 28.6 C45 28.9 44.8 29.3 44.5 29.7 C43.9 28.8 43.2 28 42.5 27.3 C41.6 26.4 40.2 26 38.9 26.3 C37.8 26.6 36.9 27.5 36.4 28.5 C36 29.4 36 30.5 36.4 31.4 C36.8 32.4 37.6 33.2 38.6 33.5 C39.6 33.9 40.7 33.8 41.6 33.3 C42.3 33 42.8 32.3 43.3 31.8 C44.9 30 46.3 27.9 46.6 25.5 C47.6 18.8 51.1 12.5 56.3 8.1 C61.3 3.8 67.7 1.3 74.3 1.2 " id="Fill-19" sketch:type="MSShapeGroup"/>
                <path d="M72.6 3.9 C77.3 3.4 82.1 4.2 86.3 6.3 C91.7 8.8 96.2 13.3 98.8 18.7 C100.4 22.1 101.3 25.9 101.3 29.7 C101.4 33.9 100.4 38 98.6 41.7 C96.1 46.7 92 50.8 87 53.3 C83.7 55.1 80 56.1 76.2 56.2 C72 56.4 67.8 55.6 64 53.8 C58.3 51.2 53.7 46.5 51.1 40.8 C49.5 37.2 48.7 33.2 48.8 29.2 C48.9 25.6 49.8 22 51.3 18.8 C53.8 13.5 58 9.2 63.1 6.6 C66.1 5.1 69.3 4.2 72.6 3.9 L72.6 3.9 ZM72.6 5.1 C69.8 5.3 67.1 6.1 64.6 7.2 C59.5 9.5 55.3 13.6 52.7 18.6 C51 22 50 25.8 50 29.6 C49.9 35 51.6 40.5 54.9 44.9 C56.8 47.4 59.1 49.5 61.7 51.2 C64.6 53 68 54.3 71.4 54.8 C75.6 55.4 79.9 54.9 83.9 53.4 C89.1 51.5 93.6 47.7 96.5 43 C98.5 39.6 99.8 35.8 100 31.9 C100.3 27.9 99.7 23.9 98.2 20.3 C95.9 15 91.8 10.5 86.7 7.8 C82.4 5.5 77.4 4.6 72.6 5.1 L72.6 5.1 Z" id="Fill-20" sketch:type="MSShapeGroup"/>
                <path d="M60.5 28.4 C62.8 25 65.1 21.6 67.5 18.2 C68.4 18.2 69.4 18.2 70.3 18.2 C70.3 23.2 70.3 28.1 70.3 33.1 C70.8 33.1 71.4 33 71.8 32.7 C72.3 32.2 72.5 31.5 72.7 30.9 C73.1 30.9 73.5 30.9 73.9 30.9 C73.7 32.2 73.6 33.5 73.4 34.8 C72.4 34.8 71.3 34.8 70.3 34.8 C70.3 35.8 70.3 36.7 70.3 37.7 C70.3 38.3 70.5 39.1 71.1 39.6 C71.7 40 72.6 40.1 73.4 40.1 L73.4 41.4 C70.2 41.4 67 41.4 63.9 41.4 C63.9 41 63.9 40.5 63.9 40.1 C64.7 40.1 65.6 40 66.2 39.5 C66.8 39.1 67 38.3 67 37.6 C67 36.7 67 35.7 67 34.8 C63.8 34.8 60.6 34.8 57.4 34.8 C57.4 34.2 57.4 33.5 57.5 32.8 C58.4 31.3 59.5 29.9 60.5 28.4 L60.5 28.4 ZM58.9 33.1 C61.6 33.1 64.3 33.1 67 33.1 C67 29.1 67 25.2 67 21.2 C64.3 25.2 61.6 29.1 58.9 33.1 L58.9 33.1 Z" id="Fill-21" sketch:type="MSShapeGroup"/>
                <path d="M80.5 19.6 C82.9 17.9 86.2 17.8 88.8 19 C90.1 19.6 91.2 20.7 91.7 22 C92.2 23.3 92.1 24.8 91.3 26 C90.5 27.3 89.1 28 87.8 28.6 C89.2 29.3 90.7 30.3 91.6 31.7 C93.1 33.9 93 37 91.4 39 C90.4 40.4 88.7 41.3 87.1 41.6 C85.1 42 83.1 41.8 81.3 41.1 C80 40.5 78.7 39.5 78 38.2 C77.5 37.2 77.3 35.9 77.5 34.8 C77.7 33.7 78.3 32.8 79 32 C79.9 31 81.1 30.3 82.3 29.8 C81 29.1 79.7 28.3 78.8 27.1 C78 25.9 77.7 24.3 78.1 22.8 C78.5 21.5 79.4 20.4 80.5 19.6 L80.5 19.6 ZM81.3 21.4 C80.7 22.2 80.6 23.2 80.9 24.1 C81.1 24.9 81.8 25.6 82.5 26.1 C83.7 26.9 85.1 27.3 86.4 28 C87.3 27.6 88.1 27 88.7 26.3 C89.8 24.8 89.7 22.5 88.5 21.2 C87.4 20 85.8 19.6 84.3 19.7 C83.1 19.9 81.9 20.4 81.3 21.4 L81.3 21.4 ZM80.9 32.8 C80.1 34 80 35.7 80.4 37.1 C80.7 38.1 81.4 39.1 82.3 39.6 C83.5 40.4 85.1 40.6 86.5 40.4 C87.6 40.2 88.7 39.6 89.4 38.6 C90.2 37.5 90.3 36 89.8 34.8 C89.4 33.8 88.6 33.1 87.8 32.5 C86.5 31.7 85 31.1 83.6 30.5 C82.5 31 81.5 31.7 80.9 32.8 L80.9 32.8 Z" id="Fill-22" sketch:type="MSShapeGroup"/>
                <path d="M39.4 28.2 C39.9 28.1 40.5 28.2 40.9 28.6 C41.4 28.9 41.7 29.6 41.6 30.2 C41.6 30.9 41.1 31.5 40.6 31.7 C39.9 32 39.1 31.9 38.5 31.4 C38 31 37.8 30.3 37.9 29.6 C38.1 28.9 38.7 28.3 39.4 28.2 " id="Fill-23" sketch:type="MSShapeGroup"/>
                <path d="M109.9 28.2 C110.5 28.1 111.1 28.2 111.5 28.6 C112 29.1 112.2 29.7 112.1 30.3 C112 30.9 111.6 31.5 111 31.8 C110.3 32 109.5 31.9 109 31.4 C108.5 31 108.3 30.2 108.4 29.5 C108.6 28.9 109.2 28.3 109.9 28.2 " id="Fill-24" sketch:type="MSShapeGroup"/>
                <path d="M45.6 31.6 C45.9 31.2 46.2 30.9 46.5 30.5 C47.2 31.7 47.6 33 47.8 34.4 C48.4 37.9 49.6 41.3 51.5 44.4 C54.5 49.3 59.1 53.3 64.5 55.5 C71 58.2 78.5 58.2 85.1 55.7 C88.1 54.5 90.9 52.8 93.4 50.6 C98 46.6 101.2 40.9 102.2 34.8 C102.4 33.3 102.9 31.8 103.6 30.5 C103.9 30.9 104.1 31.3 104.4 31.7 C104 32.5 103.7 33.4 103.6 34.3 C102.8 39.8 100.2 45.1 96.5 49.3 C92.4 53.8 86.8 57 80.8 58.2 C79.1 58.6 77.4 58.7 75.6 58.9 L74.5 58.9 C74 58.8 73.5 58.8 73 58.7 C70.7 58.6 68.3 58.1 66.1 57.4 C60.8 55.7 56.1 52.4 52.6 48.1 C49.4 44.2 47.3 39.3 46.5 34.3 C46.4 33.4 46.1 32.4 45.6 31.6 " id="Fill-25" sketch:type="MSShapeGroup"/>
                <path d="M0.1 56.3 L0.1 55 L57.2 55 L59.2 56.3 L0.1 56.3 " id="Fill-26" sketch:type="MSShapeGroup"/>
                <path d="M0.1 59 L0.1 57.7 L61.7 57.7 L65 59 L0.1 59 " id="Fill-27" sketch:type="MSShapeGroup"/>
                <path d="M149.8 56.3 L149.8 55 L92.8 55 L90.9 56.3 L149.8 56.3 " id="Fill-28" sketch:type="MSShapeGroup"/>
                <path d="M149.8 59 L149.8 57.7 L88.4 57.7 L85.1 59 L149.8 59 " id="Fill-29" sketch:type="MSShapeGroup"/>
            </g>
        </g>
    </g>
</svg>
